# xmcd
#
# Track frame offsets:
#	150
#	17475
#	36677
#	52411
#	71881
#	90967
#	104485
#	123150
#	139932
#	157022
#	176664
#	193613
#	212372
#	230230
#	251087
#	274205
#	290219
#	305733
#
# Disc length: 4319 seconds
#
# Revision: 0
# Processed by: cddbd v1.4PL0 Copyright (c) Steve Scherf et al.
# Submitted via: EasyCDDAExtractor 4.6.9.1
#
DISCID=2110dd12
DTITLE=Destiny's child - Survivor
DYEAR=2001
DGENRE=Pop/Funk
TTITLE0=Independent women part 1
TTITLE1=Survivor
TTITLE2=Bootylicious
TTITLE3=Nasty girl
TTITLE4=Fancy
TTITLE5=Apple pie a la mode
TTITLE6=Sexy daddy
TTITLE7=Perfect man
TTITLE8=Independent women part 2
TTITLE9=Happy face
TTITLE10=Dance with me
TTITLE11=My heart still beats
TTITLE12=Emtion
TTITLE13=Brown eyes
TTITLE14=Dangerously in love
TTITLE15=The story of beauty
TTITLE16=Gospel medley
TTITLE17=Outro (dc-3) thank you
EXTD=
EXTT0=
EXTT1=
EXTT2=
EXTT3=
EXTT4=
EXTT5=
EXTT6=
EXTT7=
EXTT8=
EXTT9=
EXTT10=
EXTT11=
EXTT12=
EXTT13=
EXTT14=
EXTT15=
EXTT16=
EXTT17=
PLAYORDER=
